<svg width="417" height="119" viewBox="0 0 417 119" fill="none" xmlns="http://www.w3.org/2000/svg">
<path d="M0 109V0H74V109H0Z" fill="#FF5600"/>
<path d="M9.5 82V31H63V82H9.5Z" fill="#540F01"/>
<path d="M16.5 75V36.5H54.5V75H16.5Z" fill="#FFF3D1"/>
<path d="M103 45.5V8.5H142V18H159.5V8.5H200V45.5H103Z" fill="#01BFCF"/>
<path d="M142 18V0H159.5V18H142Z" fill="#FFF603"/>
<path d="M103 84.5V45.5H200V84.5H103Z" fill="#FEF2CA"/>
<path d="M103 118.5V84H200V118.5H103Z" fill="#F60017"/>
<path d="M234.5 110V76H306V110H234.5Z" fill="#FF5601"/>
<path d="M229 53.5H238.5V38.5H303V53.5H313V21.5H306.5V0H233.5V21.5H229V53.5Z" fill="#36D800"/>
<path d="M240 38.5V10.5H302V38.5H240Z" fill="#009900"/>
<path d="M234 76V53.5H238.5V38.5H303V53.5H307V76H234Z" fill="#FFF2CF"/>
<path d="M343 8H416V46H343V8Z" fill="#4C68C9"/>
<path d="M343 80H416V118H343V80Z" fill="#A34738"/>
<path d="M342 46H417V84H342V46Z" fill="#FFF1CA"/>
<path d="M369 0H387V18H369V0Z" fill="#FE001A"/>
</svg>
